# 3ds Max Wavefront OBJ Exporter v0.97b - (c)2007 guruware
# File Created: 08.09.2017 20:06:28

mtllib Pliers.mtl

#
# object Box001
#

v  -1078672.5000 -191.0059 829479.1250
v  -1177506.8750 -191.0059 977383.1250
v  -1250371.5000 -191.0059 964813.3750
v  -1151537.1250 -191.0059 816909.3750
v  -1250371.5000 41465.9609 964813.3750
v  -1177506.8750 41465.9609 977383.1250
v  -1078672.5000 41465.9609 829479.1250
v  -1151537.1250 41465.9609 816909.3750
v  -1328492.6250 -191.0059 1529221.6250
v  -1255628.0000 -191.0059 1541791.3750
v  -1255628.0000 41465.9609 1541791.3750
v  -1328492.6250 41465.9609 1529221.6250
v  -1276048.2500 -191.0059 1379557.7500
v  -1276048.2500 41465.9609 1379557.7500
v  -975052.1250 5242.8188 662310.0000
v  -1032245.1875 5242.8188 652443.7500
v  -1032245.1875 36032.1406 652443.7500
v  -975052.1250 36032.1406 662310.0000
v  -1348913.0000 -191.0059 1366988.0000
v  -1348913.0000 41465.9609 1366988.0000
v  -1291248.8750 -191.0059 1061384.6250
v  -1218384.2500 -191.0059 1073954.3750
v  -1218384.2500 41465.9609 1073954.3750
v  -1291248.8750 41465.9609 1061384.6250
v  -1267654.8750 41465.9609 1275041.7500
v  -1267654.8750 -191.0059 1275041.7500
v  -1321298.2500 -191.0059 1160604.2500
v  -1248433.5000 -191.0059 1173173.8750
v  -1340519.5000 -191.0059 1262472.0000
v  -1248433.5000 41465.9609 1173173.8750
v  -1321298.2500 41465.9609 1160604.2500
v  -1340519.5000 41465.9609 1262472.0000
v  -1143701.3750 5242.8188 818261.1250
v  -1086508.2500 5242.8188 828127.3750
v  -1143701.3750 36032.1406 818261.1250
v  -1086508.2500 36032.1406 828127.3750
v  -1121278.8750 5242.8188 789712.5625
v  -1064085.7500 5242.8188 799578.8750
v  -1121278.8750 36032.1406 789712.5625
v  -1064085.7500 36032.1406 799578.8750
v  -989512.7500 5242.8188 688006.8125
v  -1046705.8750 5242.8188 678140.5625
v  -1046705.8750 36032.1406 678140.5625
v  -989512.7500 36032.1406 688006.8125
v  -1043834.4375 5242.8188 772755.4375
v  -1101027.5000 5242.8188 762889.1875
v  -1101027.5000 36032.1406 762889.1875
v  -1043834.4375 36032.1406 772755.4375
v  -1024655.1250 5242.8188 745219.0000
v  -1081848.2500 5242.8188 735352.7500
v  -1006547.8750 5242.8188 716969.4375
v  -1063741.0000 5242.8188 707103.1875
v  -1081848.2500 36032.1406 735352.7500
v  -1063741.0000 36032.1406 707103.1875
v  -1024655.1250 36032.1406 745219.0000
v  -1006547.8750 36032.1406 716969.4375
# 56 vertices

vn 0.0000 -1.0000 -0.0000
vn 0.0000 1.0000 -0.0000
vn -0.8321 0.0000 -0.5547
vn -0.1700 0.0000 0.9854
vn 0.9923 0.0000 -0.1240
vn 0.1700 0.0000 -0.9854
vn -0.9923 0.0000 0.1240
vn 0.8321 0.0000 0.5547
vn -0.9212 0.0000 -0.3892
vn 0.9968 0.0000 0.0803
vn -0.9572 0.0000 -0.2895
vn -0.9827 0.0000 -0.1854
vn -0.9968 0.0000 -0.0803
vn 0.9827 0.0000 0.1854
vn 0.9572 0.0000 0.2895
vn 0.9212 0.0000 0.3892
vn -0.7872 0.0000 -0.6167
vn 0.7872 0.0000 0.6167
vn -0.8720 0.0000 -0.4896
vn 0.8720 0.0000 0.4896
vn -0.7988 0.0000 -0.6016
vn 0.7988 0.0000 0.6016
vn -0.8212 0.0000 -0.5706
vn -0.8425 0.0000 -0.5387
vn -0.8625 0.0000 -0.5061
vn 0.8212 0.0000 0.5706
vn 0.8425 0.0000 0.5387
vn 0.8625 0.0000 0.5061
# 28 vertex normals

vt 1.0000 1.0000 0.0000
vt 0.7779 1.0000 0.0000
vt 0.7779 0.0000 0.0000
vt 1.0000 0.0000 0.0000
vt 0.2221 0.0000 0.0000
vt 0.2221 1.0000 0.0000
vt 0.0000 1.0000 0.0000
vt 0.0000 0.0000 0.0000
vt 0.2137 0.0000 0.0000
vt 0.2137 1.0000 0.0000
vt 0.7863 1.0000 0.0000
vt 0.7863 0.0000 0.0000
vt 0.6369 0.0000 0.0000
vt 0.6369 1.0000 0.0000
vt 0.3631 1.0000 0.0000
vt 0.3631 0.0000 0.0000
vt 0.3547 1.0000 0.0000
vt 0.3547 0.0000 0.0000
vt 0.4958 0.0000 0.0000
vt 0.4958 1.0000 0.0000
vt 0.5042 1.0000 0.0000
vt 0.5042 0.0000 0.0000
vt 0.6453 1.0000 0.0000
vt 0.6453 0.0000 0.0000
# 24 texture coords

g Box001
usemtl _crayfishdiffuse
s off
f -56/-24/-28 -55/-23/-28 -54/-22/-28 -53/-21/-28 
f -52/-20/-27 -51/-19/-27 -50/-18/-27 -49/-17/-27 
f -54/-20/-26 -52/-19/-26 -49/-18/-26 -53/-17/-26 
f -48/-17/-25 -47/-21/-25 -46/-24/-25 -45/-18/-25 
f -44/-16/-24 -43/-15/-24 -46/-18/-24 -47/-17/-24 
usemtl 02___Default
f -42/-17/-23 -41/-21/-23 -40/-24/-23 -39/-18/-23 
usemtl _crayfishdiffuse
f -47/-18/-28 -48/-17/-28 -38/-16/-28 -44/-15/-28 
f -45/-21/-27 -46/-24/-27 -43/-14/-27 -37/-13/-27 
f -48/-21/-22 -45/-24/-22 -37/-14/-22 -38/-13/-22 
f -56/-21/-21 -50/-24/-21 -51/-23/-21 -55/-22/-21 
f -36/-12/-28 -54/-22/-28 -55/-23/-28 -35/-11/-28 
f -34/-10/-27 -51/-19/-27 -52/-20/-27 -33/-9/-27 
f -33/-10/-20 -52/-19/-20 -54/-20/-20 -36/-9/-20 
f -32/-8/-19 -43/-15/-19 -44/-16/-19 -31/-7/-19 
f -30/-6/-28 -36/-12/-28 -35/-11/-28 -29/-5/-28 
f -28/-7/-28 -30/-6/-28 -29/-5/-28 -31/-8/-28 
f -38/-16/-28 -28/-7/-28 -31/-8/-28 -44/-15/-28 
f -27/-4/-27 -34/-10/-27 -33/-9/-27 -26/-3/-27 
f -32/-2/-27 -27/-4/-27 -26/-3/-27 -25/-1/-27 
f -43/-14/-27 -32/-2/-27 -25/-1/-27 -37/-13/-27 
f -26/-4/-18 -33/-10/-18 -36/-9/-18 -30/-3/-18 
f -25/-2/-17 -26/-4/-17 -30/-3/-17 -28/-1/-17 
f -37/-14/-16 -25/-2/-16 -28/-1/-16 -38/-13/-16 
f -27/-5/-15 -32/-8/-15 -31/-7/-15 -29/-6/-15 
f -34/-11/-14 -27/-5/-14 -29/-6/-14 -35/-12/-14 
f -51/-23/-13 -34/-11/-13 -35/-12/-13 -55/-22/-13 
f -56/-17/-23 -53/-21/-23 -24/-21/-23 -23/-17/-23 
f -53/-21/-23 -49/-24/-23 -22/-24/-23 -24/-21/-23 
f -49/-24/-23 -50/-18/-23 -21/-18/-23 -22/-24/-23 
f -50/-18/-23 -56/-17/-23 -23/-17/-23 -21/-18/-23 
usemtl 03___Default
f -23/-17/-28 -24/-21/-28 -20/-21/-28 -19/-17/-28 
f -22/-24/-12 -18/-24/-12 -20/-21/-12 -24/-21/-12 
f -21/-18/-27 -17/-18/-27 -18/-24/-27 -22/-24/-27 
f -23/-17/-11 -19/-17/-11 -17/-18/-11 -21/-18/-11 
usemtl 02___Default
f -41/-21/-28 -42/-17/-28 -16/-17/-28 -15/-21/-28 
f -40/-24/-10 -41/-21/-10 -15/-21/-10 -14/-24/-10 
f -13/-18/-27 -39/-18/-27 -40/-24/-27 -14/-24/-27 
f -42/-17/-9 -39/-18/-9 -13/-18/-9 -16/-17/-9 
f -12/-17/-28 -19/-17/-28 -20/-21/-28 -11/-21/-28 
f -11/-21/-8 -20/-21/-8 -18/-24/-8 -10/-24/-8 
f -10/-24/-27 -18/-24/-27 -17/-18/-27 -9/-18/-27 
f -9/-18/-7 -17/-18/-7 -19/-17/-7 -12/-17/-7 
f -8/-17/-28 -12/-17/-28 -11/-21/-28 -7/-21/-28 
f -6/-17/-28 -8/-17/-28 -7/-21/-28 -5/-21/-28 
f -16/-17/-28 -6/-17/-28 -5/-21/-28 -15/-21/-28 
f -7/-21/-6 -11/-21/-6 -10/-24/-6 -4/-24/-6 
f -5/-21/-5 -7/-21/-5 -4/-24/-5 -3/-24/-5 
f -15/-21/-4 -5/-21/-4 -3/-24/-4 -14/-24/-4 
f -4/-24/-27 -10/-24/-27 -9/-18/-27 -2/-18/-27 
f -3/-24/-27 -4/-24/-27 -2/-18/-27 -1/-18/-27 
f -14/-24/-27 -3/-24/-27 -1/-18/-27 -13/-18/-27 
f -2/-18/-3 -9/-18/-3 -12/-17/-3 -8/-17/-3 
f -1/-18/-2 -2/-18/-2 -8/-17/-2 -6/-17/-2 
f -13/-18/-1 -1/-18/-1 -6/-17/-1 -16/-17/-1 
# 54 polygons

#
# object Cylinder001
#

v  -982440.5000 1705.3945 735096.3125
v  -962124.1250 1705.3945 735021.0000
v  -962124.1250 40109.4219 735021.0000
v  -982440.5000 40109.4219 735096.3125
v  -943058.6875 1705.3945 728001.6250
v  -943058.6875 40109.4219 728001.6250
v  -927543.8750 1705.3945 714884.8125
v  -927543.8750 40109.4219 714884.8125
v  -917450.8750 1705.3945 697252.6875
v  -917450.8750 40109.4219 697252.6875
v  -913997.1250 1705.3945 677231.8750
v  -913997.1250 40109.4219 677231.8750
v  -917599.1875 1705.3945 657237.1875
v  -917599.1875 40109.4219 657237.1875
v  -927822.6250 1705.3945 639680.3750
v  -927822.6250 40109.4219 639680.3750
v  -943434.2500 1705.3945 626678.9375
v  -943434.2500 40109.4219 626678.9375
v  -962551.1250 1705.3945 619801.0625
v  -962551.1250 40109.4219 619801.0625
v  -982867.5000 1705.3945 619876.3750
v  -982867.5000 40109.4219 619876.3750
v  -1001932.9375 1705.3945 626895.7500
v  -1001932.9375 40109.4219 626895.7500
v  -1017447.7500 1705.3945 640012.5625
v  -1017447.7500 40109.4219 640012.5625
v  -1027540.7500 1705.3945 657644.6875
v  -1027540.7500 40109.4219 657644.6875
v  -1030994.5000 1705.3945 677665.5000
v  -1030994.5000 40109.4219 677665.5000
v  -1027392.4375 1705.3945 697660.1250
v  -1027392.4375 40109.4219 697660.1250
v  -1017169.0625 1705.3945 715217.0000
v  -1017169.0625 40109.4219 715217.0000
v  -1001557.4375 1705.3945 728218.4375
v  -1001557.4375 40109.4219 728218.4375
# 36 vertices

vn 0.0037 0.0000 1.0000
vn 0.3455 0.0000 0.9384
vn 0.6456 0.0000 0.7637
vn 0.8679 0.0000 0.4968
vn 0.9854 0.0000 0.1700
vn 0.9842 0.0000 -0.1773
vn 0.8642 0.0000 -0.5032
vn 0.6399 0.0000 -0.7684
vn 0.3385 0.0000 -0.9410
vn -0.0037 0.0000 -1.0000
vn -0.3455 0.0000 -0.9384
vn -0.6456 0.0000 -0.7637
vn -0.8679 0.0000 -0.4968
vn -0.9854 0.0000 -0.1700
vn -0.9842 0.0000 0.1773
vn -0.8642 0.0000 0.5032
vn -0.6399 0.0000 0.7684
vn -0.3385 0.0000 0.9410
vn 0.0000 -1.0000 -0.0000
vn 0.0000 1.0000 -0.0000
# 20 vertex normals

vt 0.7500 0.0000 1.0000
vt 0.8056 0.0000 1.0000
vt 0.8056 1.0000 1.0000
vt 0.7500 1.0000 1.0000
vt 0.8611 0.0000 1.0000
vt 0.8611 1.0000 1.0000
vt 0.9167 0.0000 1.0000
vt 0.9167 1.0000 1.0000
vt 0.9722 0.0000 1.0000
vt 0.9722 1.0000 1.0000
vt 1.0278 0.0000 1.0000
vt 1.0278 1.0000 1.0000
vt 0.0278 0.0000 1.0000
vt 0.0833 0.0000 1.0000
vt 0.0833 1.0000 1.0000
vt 0.0278 1.0000 1.0000
vt 0.1389 0.0000 1.0000
vt 0.1389 1.0000 1.0000
vt 0.1944 0.0000 1.0000
vt 0.1944 1.0000 1.0000
vt 0.2500 0.0000 1.0000
vt 0.2500 1.0000 1.0000
vt 0.3056 0.0000 1.0000
vt 0.3056 1.0000 1.0000
vt 0.3611 0.0000 1.0000
vt 0.3611 1.0000 1.0000
vt 0.4167 0.0000 1.0000
vt 0.4167 1.0000 1.0000
vt 0.4722 0.0000 1.0000
vt 0.4722 1.0000 1.0000
vt 0.5278 0.0000 1.0000
vt 0.5278 1.0000 1.0000
vt 0.5833 0.0000 1.0000
vt 0.5833 1.0000 1.0000
vt 0.6389 0.0000 1.0000
vt 0.6389 1.0000 1.0000
vt 0.6944 0.0000 1.0000
vt 0.6944 1.0000 1.0000
vt 0.8214 0.8830 -0.2500
vt 0.9330 0.7500 -0.2500
vt 0.9924 0.5868 -0.2500
vt 0.5000 1.0000 -0.2500
vt 0.9924 0.4132 -0.2500
vt 0.9330 0.2500 -0.2500
vt 0.6710 0.0302 -0.2500
vt 0.8214 0.1170 -0.2500
vt 0.5000 0.0000 -0.2500
vt 0.3290 0.0302 -0.2500
vt 0.0670 0.2500 -0.2500
vt 0.1786 0.1170 -0.2500
vt 0.0076 0.4132 -0.2500
vt 0.0076 0.5868 -0.2500
vt 0.1786 0.8830 -0.2500
vt 0.0670 0.7500 -0.2500
vt 0.3290 0.9698 -0.2500
vt 0.6710 0.9698 -0.2500
vt 0.3290 0.9698 0.2500
vt 0.1786 0.8830 0.2500
vt 0.0670 0.7500 0.2500
vt 0.6710 0.9698 0.2500
vt 0.0076 0.5868 0.2500
vt 0.0076 0.4132 0.2500
vt 0.1786 0.1170 0.2500
vt 0.0670 0.2500 0.2500
vt 0.3290 0.0302 0.2500
vt 0.5000 0.0000 0.2500
vt 0.8214 0.1170 0.2500
vt 0.6710 0.0302 0.2500
vt 0.9330 0.2500 0.2500
vt 0.9924 0.4132 0.2500
vt 0.9330 0.7500 0.2500
vt 0.9924 0.5868 0.2500
vt 0.8214 0.8830 0.2500
vt 0.5000 1.0000 0.2500
# 74 texture coords

g Cylinder001
usemtl 02___Default
s off
f -36/-74/-20 -35/-73/-20 -34/-72/-20 -33/-71/-20 
f -35/-73/-19 -32/-70/-19 -31/-69/-19 -34/-72/-19 
f -32/-70/-18 -30/-68/-18 -29/-67/-18 -31/-69/-18 
f -30/-68/-17 -28/-66/-17 -27/-65/-17 -29/-67/-17 
f -28/-66/-16 -26/-64/-16 -25/-63/-16 -27/-65/-16 
f -26/-62/-15 -24/-61/-15 -23/-60/-15 -25/-59/-15 
f -24/-61/-14 -22/-58/-14 -21/-57/-14 -23/-60/-14 
f -22/-58/-13 -20/-56/-13 -19/-55/-13 -21/-57/-13 
f -20/-56/-12 -18/-54/-12 -17/-53/-12 -19/-55/-12 
f -18/-54/-11 -16/-52/-11 -15/-51/-11 -17/-53/-11 
f -16/-52/-10 -14/-50/-10 -13/-49/-10 -15/-51/-10 
f -14/-50/-9 -12/-48/-9 -11/-47/-9 -13/-49/-9 
f -12/-48/-8 -10/-46/-8 -9/-45/-8 -11/-47/-8 
f -10/-46/-7 -8/-44/-7 -7/-43/-7 -9/-45/-7 
f -8/-44/-6 -6/-42/-6 -5/-41/-6 -7/-43/-6 
f -6/-42/-5 -4/-40/-5 -3/-39/-5 -5/-41/-5 
f -4/-40/-4 -2/-38/-4 -1/-37/-4 -3/-39/-4 
f -2/-38/-3 -36/-74/-3 -33/-71/-3 -1/-37/-3 
f -4/-36/-2 -6/-35/-2 -8/-34/-2 -36/-33/-2 
f -8/-34/-2 -10/-32/-2 -12/-31/-2 -16/-30/-2 
f -12/-31/-2 -14/-29/-2 -16/-30/-2 
f -16/-30/-2 -18/-28/-2 -20/-27/-2 -24/-26/-2 
f -20/-27/-2 -22/-25/-2 -24/-26/-2 
f -24/-26/-2 -26/-24/-2 -28/-23/-2 -32/-22/-2 
f -28/-23/-2 -30/-21/-2 -32/-22/-2 
f -16/-30/-2 -24/-26/-2 -32/-22/-2 -8/-34/-2 
f -32/-22/-2 -35/-20/-2 -36/-33/-2 -8/-34/-2 
f -2/-19/-2 -4/-36/-2 -36/-33/-2 
f -34/-18/-1 -31/-17/-1 -29/-16/-1 -1/-15/-1 
f -29/-16/-1 -27/-14/-1 -25/-13/-1 -21/-12/-1 
f -25/-13/-1 -23/-11/-1 -21/-12/-1 
f -21/-12/-1 -19/-10/-1 -17/-9/-1 -13/-8/-1 
f -17/-9/-1 -15/-7/-1 -13/-8/-1 
f -13/-8/-1 -11/-6/-1 -9/-5/-1 -5/-4/-1 
f -9/-5/-1 -7/-3/-1 -5/-4/-1 
f -21/-12/-1 -13/-8/-1 -5/-4/-1 -29/-16/-1 
f -5/-4/-1 -3/-2/-1 -1/-15/-1 -29/-16/-1 
f -33/-1/-1 -34/-18/-1 -1/-15/-1 
# 30 polygons - 8 triangles

#
# object Box002
#

v  -922049.8750 -191.0059 856497.8125
v  -878482.3125 -191.0059 1028967.2500
v  -805617.6875 -191.0059 1041537.0000
v  -849185.1875 -191.0059 869067.5000
v  -805617.6875 41465.9609 1041537.0000
v  -878482.3125 41465.9609 1028967.2500
v  -922049.8750 41465.9609 856497.8125
v  -849185.1875 41465.9609 869067.5000
v  -921113.9375 -191.0059 1599497.7500
v  -993978.6250 -191.0059 1586928.0000
v  -993978.6250 41465.9609 1586928.0000
v  -921113.9375 41465.9609 1599497.7500
v  -920383.0000 -191.0059 1440912.8750
v  -920383.0000 41465.9609 1440912.8750
v  -963672.0000 5242.8188 664273.2500
v  -906478.8750 5242.8188 674139.5000
v  -906478.8750 36032.1406 674139.5000
v  -963672.0000 36032.1406 664273.2500
v  -847518.3125 -191.0059 1453482.6250
v  -847518.3125 41465.9609 1453482.6250
v  -799458.6875 -191.0059 1146222.3750
v  -872323.3750 -191.0059 1133652.6250
v  -872323.3750 41465.9609 1133652.6250
v  -799458.6875 41465.9609 1146222.3750
v  -893273.6875 41465.9609 1339625.5000
v  -893273.6875 -191.0059 1339625.5000
v  -804389.1250 -191.0059 1249775.1250
v  -877253.8125 -191.0059 1237205.3750
v  -820409.0000 -191.0059 1352195.1250
v  -877253.8125 41465.9609 1237205.3750
v  -804389.1250 41465.9609 1249775.1250
v  -820409.0000 41465.9609 1352195.1250
v  -857020.9375 5242.8188 867715.8125
v  -914214.0625 5242.8188 857849.5625
v  -857020.9375 36032.1406 867715.8125
v  -914214.0625 36032.1406 857849.5625
v  -868582.3750 5242.8188 833304.8125
v  -925775.5000 5242.8188 823438.5000
v  -868582.3750 36032.1406 833304.8125
v  -925775.5000 36032.1406 823438.5000
v  -958656.6875 5242.8188 693329.8125
v  -901463.6250 5242.8188 703196.0625
v  -901463.6250 36032.1406 703196.0625
v  -958656.6875 36032.1406 693329.8125
v  -935869.3125 5242.8188 791380.3750
v  -878676.1875 5242.8188 801246.6250
v  -878676.1875 36032.1406 801246.6250
v  -935869.3125 36032.1406 791380.3750
v  -944714.1875 5242.8188 759009.5000
v  -887521.0625 5242.8188 768875.7500
v  -952309.9375 5242.8188 726326.0000
v  -895116.8125 5242.8188 736192.2500
v  -887521.0625 36032.1406 768875.7500
v  -895116.8125 36032.1406 736192.2500
v  -944714.1875 36032.1406 759009.5000
v  -952309.9375 36032.1406 726326.0000
# 56 vertices

vn 0.0000 -1.0000 -0.0000
vn 0.0000 1.0000 -0.0000
vn 0.9698 0.0000 -0.2438
vn -0.1700 0.0000 0.9854
vn -0.8934 0.0000 -0.4493
vn 0.1700 0.0000 -0.9854
vn 0.8934 0.0000 0.4493
vn -0.9698 0.0000 0.2438
vn 0.9983 0.0000 -0.0581
vn -0.9661 0.0000 -0.2583
vn 0.9989 0.0000 0.0479
vn 0.9880 0.0000 0.1546
vn 0.9661 0.0000 0.2583
vn -0.9880 0.0000 -0.1546
vn -0.9989 0.0000 -0.0479
vn -0.9983 0.0000 0.0581
vn 0.9483 0.0000 -0.3173
vn -0.9483 0.0000 0.3173
vn 0.9856 0.0000 -0.1691
vn -0.9856 0.0000 0.1691
vn 0.9542 0.0000 -0.2991
vn -0.9542 0.0000 0.2991
vn 0.9649 0.0000 -0.2624
vn 0.9743 0.0000 -0.2253
vn 0.9822 0.0000 -0.1879
vn -0.9649 0.0000 0.2624
vn -0.9743 0.0000 0.2253
vn -0.9822 0.0000 0.1879
# 28 vertex normals

vt 1.0000 1.0000 0.0000
vt 0.7779 1.0000 0.0000
vt 0.7779 0.0000 0.0000
vt 1.0000 0.0000 0.0000
vt 0.2221 0.0000 0.0000
vt 0.2221 1.0000 0.0000
vt 0.0000 1.0000 0.0000
vt 0.0000 0.0000 0.0000
vt 0.2137 0.0000 0.0000
vt 0.2137 1.0000 0.0000
vt 0.7863 1.0000 0.0000
vt 0.7863 0.0000 0.0000
vt 0.6369 0.0000 0.0000
vt 0.6369 1.0000 0.0000
vt 0.3631 1.0000 0.0000
vt 0.3631 0.0000 0.0000
vt 0.3547 1.0000 0.0000
vt 0.3547 0.0000 0.0000
vt 0.4958 0.0000 0.0000
vt 0.4958 1.0000 0.0000
vt 0.5042 1.0000 0.0000
vt 0.5042 0.0000 0.0000
vt 0.6453 1.0000 0.0000
vt 0.6453 0.0000 0.0000
# 24 texture coords

g Box002
usemtl _crayfishdiffuse
s off
f -53/-21/-28 -54/-22/-28 -55/-23/-28 -56/-24/-28 
f -49/-17/-27 -50/-18/-27 -51/-19/-27 -52/-20/-27 
f -53/-17/-26 -49/-18/-26 -52/-19/-26 -54/-20/-26 
f -45/-18/-25 -46/-24/-25 -47/-21/-25 -48/-17/-25 
f -47/-17/-24 -46/-18/-24 -43/-15/-24 -44/-16/-24 
usemtl 02___Default
f -39/-18/-23 -40/-24/-23 -41/-21/-23 -42/-17/-23 
usemtl _crayfishdiffuse
f -44/-15/-28 -38/-16/-28 -48/-17/-28 -47/-18/-28 
f -37/-13/-27 -43/-14/-27 -46/-24/-27 -45/-21/-27 
f -38/-13/-22 -37/-14/-22 -45/-24/-22 -48/-21/-22 
f -55/-22/-21 -51/-23/-21 -50/-24/-21 -56/-21/-21 
f -35/-11/-28 -55/-23/-28 -54/-22/-28 -36/-12/-28 
f -33/-9/-27 -52/-20/-27 -51/-19/-27 -34/-10/-27 
f -36/-9/-20 -54/-20/-20 -52/-19/-20 -33/-10/-20 
f -31/-7/-19 -44/-16/-19 -43/-15/-19 -32/-8/-19 
f -29/-5/-28 -35/-11/-28 -36/-12/-28 -30/-6/-28 
f -31/-8/-28 -29/-5/-28 -30/-6/-28 -28/-7/-28 
f -44/-15/-28 -31/-8/-28 -28/-7/-28 -38/-16/-28 
f -26/-3/-27 -33/-9/-27 -34/-10/-27 -27/-4/-27 
f -25/-1/-27 -26/-3/-27 -27/-4/-27 -32/-2/-27 
f -37/-13/-27 -25/-1/-27 -32/-2/-27 -43/-14/-27 
f -30/-3/-18 -36/-9/-18 -33/-10/-18 -26/-4/-18 
f -28/-1/-17 -30/-3/-17 -26/-4/-17 -25/-2/-17 
f -38/-13/-16 -28/-1/-16 -25/-2/-16 -37/-14/-16 
f -29/-6/-15 -31/-7/-15 -32/-8/-15 -27/-5/-15 
f -35/-12/-14 -29/-6/-14 -27/-5/-14 -34/-11/-14 
f -55/-22/-13 -35/-12/-13 -34/-11/-13 -51/-23/-13 
f -23/-17/-23 -24/-21/-23 -53/-21/-23 -56/-17/-23 
f -24/-21/-23 -22/-24/-23 -49/-24/-23 -53/-21/-23 
f -22/-24/-23 -21/-18/-23 -50/-18/-23 -49/-24/-23 
f -21/-18/-23 -23/-17/-23 -56/-17/-23 -50/-18/-23 
usemtl 03___Default
f -19/-17/-28 -20/-21/-28 -24/-21/-28 -23/-17/-28 
f -24/-21/-12 -20/-21/-12 -18/-24/-12 -22/-24/-12 
f -22/-24/-27 -18/-24/-27 -17/-18/-27 -21/-18/-27 
f -21/-18/-11 -17/-18/-11 -19/-17/-11 -23/-17/-11 
usemtl 02___Default
f -15/-21/-28 -16/-17/-28 -42/-17/-28 -41/-21/-28 
f -14/-24/-10 -15/-21/-10 -41/-21/-10 -40/-24/-10 
f -14/-24/-27 -40/-24/-27 -39/-18/-27 -13/-18/-27 
f -16/-17/-9 -13/-18/-9 -39/-18/-9 -42/-17/-9 
f -11/-21/-28 -20/-21/-28 -19/-17/-28 -12/-17/-28 
f -10/-24/-8 -18/-24/-8 -20/-21/-8 -11/-21/-8 
f -9/-18/-27 -17/-18/-27 -18/-24/-27 -10/-24/-27 
f -12/-17/-7 -19/-17/-7 -17/-18/-7 -9/-18/-7 
f -7/-21/-28 -11/-21/-28 -12/-17/-28 -8/-17/-28 
f -5/-21/-28 -7/-21/-28 -8/-17/-28 -6/-17/-28 
f -15/-21/-28 -5/-21/-28 -6/-17/-28 -16/-17/-28 
f -4/-24/-6 -10/-24/-6 -11/-21/-6 -7/-21/-6 
f -3/-24/-5 -4/-24/-5 -7/-21/-5 -5/-21/-5 
f -14/-24/-4 -3/-24/-4 -5/-21/-4 -15/-21/-4 
f -2/-18/-27 -9/-18/-27 -10/-24/-27 -4/-24/-27 
f -1/-18/-27 -2/-18/-27 -4/-24/-27 -3/-24/-27 
f -13/-18/-27 -1/-18/-27 -3/-24/-27 -14/-24/-27 
f -8/-17/-3 -12/-17/-3 -9/-18/-3 -2/-18/-3 
f -6/-17/-2 -8/-17/-2 -2/-18/-2 -1/-18/-2 
f -16/-17/-1 -6/-17/-1 -1/-18/-1 -13/-18/-1 
# 54 polygons

#
# object Box004
#

v  -890522.3750 7020.7227 487832.5625
v  -960858.5000 7020.7227 640135.5625
v  -916691.5625 7020.7266 660532.6250
v  -877905.2500 7020.7236 495966.9375
v  -869498.5000 7020.7246 506771.9688
v  -865302.1875 7020.7256 520247.6875
v  -865316.3125 7020.7261 536394.0625
v  -869540.8125 7020.7266 555211.1875
v  -877975.6875 7020.7266 576698.9375
v  -877975.6875 36005.6719 576698.9375
v  -916691.5625 36005.6719 660532.6250
v  -960858.5000 36005.6719 640135.5625
v  -890522.3750 36005.6719 487832.5625
v  -869540.8125 36005.6719 555211.1875
v  -865316.3125 36005.6719 536394.0625
v  -865302.1875 36005.6719 520247.6875
v  -869498.5000 36005.6719 506771.9688
v  -877905.2500 36005.6719 495966.9375
v  -967650.6875 7020.7246 638963.8125
v  -982893.2500 7020.7246 471897.8125
v  -1016098.8750 7020.7246 643384.0625
v  -997506.5000 7020.7246 475334.7500
v  -1009047.5000 7020.7246 482698.6563
v  -1017516.2500 7020.7246 493989.5625
v  -1022912.7500 7020.7246 509207.4375
v  -1025237.0000 7020.7246 528352.3125
v  -1024488.9375 7020.7246 551424.2500
v  -967650.6875 36005.6719 638963.8125
v  -1016098.8750 36005.6719 643384.0625
v  -1024488.9375 36005.6719 551424.2500
v  -982893.2500 36005.6719 471897.8438
v  -1025237.0000 36005.6719 528352.3125
v  -1022912.7500 36005.6719 509207.4375
v  -1017516.2500 36005.6719 493989.5625
v  -1009047.5000 36005.6719 482698.6563
v  -997506.5000 36005.6719 475334.7500
# 36 vertices

vn 0.0000 -1.0000 0.0000
vn -0.0000 1.0000 -0.0000
vn 0.9079 0.0000 0.4193
vn -0.4193 0.0000 0.9079
vn -0.9079 -0.0000 -0.4193
vn -0.2819 -0.0000 -0.9594
vn 0.9318 0.0000 0.3629
vn 0.9777 0.0000 0.2099
vn 0.9999 0.0000 -0.0163
vn 0.9480 0.0000 -0.3184
vn 0.7781 0.0000 -0.6281
vn 0.5368 0.0000 -0.8437
vn -0.0000 -1.0000 -0.0000
vn -0.0000 1.0000 0.0000
vn 0.0000 1.0000 0.0000
vn -0.9939 -0.0000 0.1102
vn 0.0719 -0.0000 0.9974
vn 0.9939 -0.0000 -0.1102
vn 0.5854 -0.0000 -0.8107
vn -0.9987 -0.0000 0.0504
vn -0.9942 0.0000 -0.1074
vn -0.9439 0.0000 -0.3303
vn -0.7944 -0.0000 -0.6074
vn -0.5206 -0.0000 -0.8538
vn -0.2080 0.0000 -0.9781
# 25 vertex normals

vt 1.0000 1.0000 0.0000
vt 0.0000 1.0000 0.0000
vt 0.0000 0.0000 0.0000
vt 0.9875 0.6944 0.0000
vt 0.9500 0.4444 0.0000
vt 0.8876 0.2500 0.0000
vt 0.8002 0.1111 0.0000
vt 0.6878 0.0278 0.0000
vt 0.5504 0.0000 0.0000
vt 0.4496 0.0000 0.0000
vt 1.0000 0.0000 0.0000
vt 0.3122 0.0278 0.0000
vt 0.1998 0.1111 0.0000
vt 0.1124 0.2500 0.0000
vt 0.0500 0.4444 0.0000
vt 0.0125 0.6944 0.0000
vt 0.4496 1.0000 0.0000
vt 2.3851 0.0000 0.0000
vt 2.8622 0.0000 0.0000
vt 2.8622 1.0000 0.0000
vt 2.3851 1.0000 0.0000
vt 1.9081 0.0000 0.0000
vt 1.9081 1.0000 0.0000
vt 1.4311 0.0000 0.0000
vt 1.4311 1.0000 0.0000
vt 0.9541 0.0000 0.0000
vt 0.9541 1.0000 0.0000
vt 0.4770 0.0000 0.0000
vt 0.4770 1.0000 0.0000
# 29 texture coords

g Box004
usemtl 02___Default
s off
f -34/-27/-25 -35/-28/-25 -36/-29/-25 -36/-29/-25 
f -32/-25/-25 -34/-27/-25 -36/-29/-25 -33/-26/-25 
f -30/-23/-25 -34/-27/-25 -32/-25/-25 -31/-24/-25 
f -28/-21/-25 -34/-27/-25 -30/-23/-25 -29/-22/-25 
f -24/-28/-24 -25/-29/-24 -26/-19/-24 -27/-20/-24 
f -22/-17/-24 -24/-28/-24 -27/-20/-24 -23/-18/-24 
f -20/-15/-24 -24/-28/-24 -22/-17/-24 -21/-16/-24 
f -24/-28/-24 -24/-28/-24 -20/-15/-24 -19/-14/-24 
f -27/-13/-23 -26/-29/-23 -34/-19/-23 -28/-20/-23 
f -26/-28/-22 -25/-29/-22 -35/-19/-22 -34/-27/-22 
f -25/-28/-21 -24/-29/-21 -36/-19/-21 -35/-27/-21 
f -24/-28/-20 -24/-28/-20 -36/-27/-20 -36/-27/-20 
f -23/-9/-19 -27/-10/-19 -28/-11/-19 -29/-12/-19 
f -22/-7/-18 -23/-9/-18 -29/-12/-18 -30/-8/-18 
f -21/-5/-17 -22/-7/-17 -30/-8/-17 -31/-6/-17 
f -20/-3/-16 -21/-5/-16 -31/-6/-16 -32/-4/-16 
f -19/-1/-15 -20/-3/-15 -32/-4/-15 -33/-2/-15 
f -24/-28/-14 -19/-1/-14 -33/-2/-14 -36/-27/-14 
f -16/-27/-13 -17/-29/-13 -17/-29/-13 -18/-28/-13 
f -14/-25/-13 -15/-26/-13 -17/-29/-13 -16/-27/-13 
f -12/-23/-13 -13/-24/-13 -14/-25/-13 -16/-27/-13 
f -10/-21/-13 -11/-22/-13 -12/-23/-13 -16/-27/-13 
f -6/-28/-12 -7/-20/-12 -8/-19/-12 -9/-29/-12 
f -4/-17/-11 -5/-18/-11 -7/-20/-11 -6/-28/-11 
f -2/-15/-11 -3/-16/-11 -4/-17/-11 -6/-28/-11 
f -6/-28/-24 -1/-14/-24 -2/-15/-24 -6/-28/-24 
f -16/-19/-10 -8/-29/-10 -7/-13/-10 -10/-20/-10 
f -18/-19/-9 -9/-29/-9 -8/-28/-9 -16/-27/-9 
f -17/-19/-8 -6/-29/-8 -9/-28/-8 -18/-27/-8 
f -17/-27/-7 -6/-28/-7 -6/-28/-7 -17/-27/-7 
f -10/-11/-6 -7/-10/-6 -5/-9/-6 -11/-12/-6 
f -11/-12/-5 -5/-9/-5 -4/-7/-5 -12/-8/-5 
f -12/-8/-4 -4/-7/-4 -3/-5/-4 -13/-6/-4 
f -13/-6/-3 -3/-5/-3 -2/-3/-3 -14/-4/-3 
f -14/-4/-2 -2/-3/-2 -1/-1/-2 -15/-2/-2 
f -15/-2/-1 -1/-1/-1 -6/-28/-1 -17/-27/-1 
# 36 polygons

